 <svg
      class="floppy"
      xmlns="http://www.w3.org/2000/svg"
      style="display: none"
      aria-hidden="true"
    >
    <symbol id="floppy" viewBox="0 0 40 40" fill="currentColor">
        <path
          fill="currentColor"
          d="M0 0h3.00001v3H0zm0 3h3.00001v3H0zm0 3h3.00001v3H0zm0 3h3.00001v3H0zm0 3h3.00001v3H0zm0 3h3.00001v3H0zm0 3h3.00001v3H0zm0 3h3.00001v3H0zm0 3h3.00001v3H0zm0 3h3.00001v3H0zm0 3h3.00001v3H0zm0 3h3.00001v3H0zm0 3h3.00001v3H0zM33 0v3h-3.00001V0z"
        />
        <path
          fill="currentColor"
          d="M30.0031 0v3h-3.00001V0zm-3.0033 0v3h-3.00001V0z"
        />
        <path
          fill="currentColor"
          d="M23.9998 0v3h-3.00001V0zM20.999 0v3h-3.00001V0z"
        />
        <path
          fill="currentColor"
          d="M17.9998 0v3h-3.00001V0zM14.999 0v3h-3.00001V0z"
        />
        <path
          fill="currentColor"
          d="M11.9999 0v3H8.99989V0zM8.99609 0v3H5.99608V0z"
        />
        <path
          fill="currentColor"
          d="M5.99994 0v3H2.99993V0zM36.0008 3v3h-3.00001V3zM8.99609 6v3H5.99608V6zm0-3v3H5.99608V3zm0 6v3H5.99608V9zM30.0031 6v3h-3.00001V6zm0-3v3h-3.00001V3zm0 6v3h-3.00001V9zm-6.0033-3v3h-3.00001V6zm0-3v3h-3.00001V3zm0 6v3h-3.00001V9zm6.0033 3v3h-3.00001v-3zm-3.0033 0v3h-3.00001v-3z"
        />
        <path
          fill="currentColor"
          d="M23.9998 12v3h-3.00001v-3zm-3.0008 0v3h-3.00001v-3z"
        />
        <path
          fill="currentColor"
          d="M17.9998 12v3h-3.00001v-3zm-3.0008 0v3h-3.00001v-3z"
        />
        <path
          fill="currentColor"
          d="M11.9999 12v3H8.99989v-3zm-3.00381 0v3H5.99608v-3zM33 21v3h-3.00001v-3z"
        />
        <path
          fill="currentColor"
          d="M30.0031 21v3h-3.00001v-3zm-3.0033 0v3h-3.00001v-3z"
        />
        <path
          fill="currentColor"
          d="M23.9998 21v3h-3.00001v-3zm-3.0008 0v3h-3.00001v-3z"
        />
        <path
          fill="currentColor"
          d="M17.9998 21v3h-3.00001v-3zm-3.0008 0v3h-3.00001v-3z"
        />
        <path
          fill="currentColor"
          d="M11.9999 21v3H8.99989v-3zm-3.00381 0v3H5.99608v-3zM33 24v3h-3.00001v-3zM8.99609 24v3H5.99608v-3zM33 27v3h-3.00001v-3zM8.99609 27v3H5.99608v-3zM33 30v3h-3.00001v-3zM8.99609 30v3H5.99608v-3zm0 3v3H5.99608v-3zM33 33v3h-3.00001v-3zm3.0008 3v3h-3.00001v-3zM33 36v3h-3.00001v-3z"
        />
        <path
          fill="currentColor"
          d="M30.0031 36v3h-3.00001v-3zm-3.0033 0v3h-3.00001v-3z"
        />
        <path
          fill="currentColor"
          d="M23.9998 36v3h-3.00001v-3zm-3.0008 0v3h-3.00001v-3z"
        />
        <path
          fill="currentColor"
          d="M17.9998 36v3h-3.00001v-3zm-3.0008 0v3h-3.00001v-3z"
        />
        <path
          fill="currentColor"
          d="M11.9999 36v3H8.99989v-3zm-3.00381 0v3H5.99608v-3z"
        />
        <path
          fill="currentColor"
          d="M5.99994 36v3H2.99993v-3zM39 39h-3.00001v-3H39zm0-3h-3.00001v-3H39zm0-3h-3.00001v-3H39zm0-3h-3.00001v-3H39zm0-3h-3.00001v-3H39zm0-3h-3.00001v-3H39zm0-3h-3.00001v-3H39zm0-3h-3.00001v-3H39zm0-3h-3.00001v-3H39zm0-3h-3.00001V9H39zm0-3h-3.00001V6H39z"
        />
        </symbol>
    </svg>